<svg width="291" height="112" viewBox="0 0 291 112" fill="none" xmlns="http://www.w3.org/2000/svg">
<path d="M2.77523 2.69871H3.8847V10.465H2.60881V4.06335L1.04447 4.50714L0.733815 3.41986L2.77523 2.69871ZM10.4535 9.51083C9.92097 10.2431 9.17393 10.6092 8.21239 10.6092C7.25085 10.6092 6.50011 10.2431 5.96017 9.51083C5.42763 8.77858 5.16136 7.80225 5.16136 6.58184C5.16136 5.36143 5.42763 4.3851 5.96017 3.65285C6.50011 2.9206 7.25085 2.55448 8.21239 2.55448C9.17393 2.55448 9.92097 2.9206 10.4535 3.65285C10.9934 4.3851 11.2634 5.36143 11.2634 6.58184C11.2634 7.80225 10.9934 8.77858 10.4535 9.51083ZM8.21239 9.3666C8.78931 9.3666 9.2294 9.12621 9.53265 8.64544C9.83591 8.16467 9.98753 7.47681 9.98753 6.58184C9.98753 5.68687 9.83591 4.999 9.53265 4.51823C9.2294 4.03746 8.78931 3.79708 8.21239 3.79708C7.64286 3.79708 7.20278 4.03746 6.89213 4.51823C6.58887 4.999 6.43724 5.68687 6.43724 6.58184C6.43724 7.47681 6.58887 8.16467 6.89213 8.64544C7.20278 9.12621 7.64286 9.3666 8.21239 9.3666ZM17.3087 10.465H15.8775L13.6031 7.9021V10.465H12.4049V2.69871H13.6031V7.36956L15.7555 4.91764H17.2199L14.7791 7.63583L17.3087 10.465Z" fill="#718EBF"/>
<path d="M13.0638 34.2298V35.4169H12.1762V36.8148H10.8892V35.4169H7.07264V34.2298L9.74645 29.0486H11.1333L8.45947 34.2298H10.8892V32.2105H12.1762V34.2298H13.0638ZM18.856 36.8148H17.4248L15.1504 34.252V36.8148H13.9522V29.0486H15.1504V33.7194L17.3028 31.2675H18.7673L16.3264 33.9857L18.856 36.8148Z" fill="#718EBF"/>
<path d="M6.7248 63.1646V62.166L9.43189 59.4035C10.0902 58.7452 10.4193 58.1757 10.4193 57.6949C10.4193 57.3177 10.3047 57.0255 10.0754 56.8184C9.85349 56.6039 9.56873 56.4967 9.2211 56.4967C8.57021 56.4967 8.08944 56.8184 7.77879 57.4619L6.70261 56.8295C6.94669 56.3118 7.29063 55.9197 7.73441 55.6535C8.1782 55.3872 8.67006 55.2541 9.21 55.2541C9.89047 55.2541 10.4748 55.4686 10.963 55.8976C11.4511 56.3265 11.6952 56.9109 11.6952 57.6505C11.6952 58.4419 11.2551 59.2851 10.3749 60.1801L8.62198 61.933H11.8394V63.1646H6.7248ZM17.856 63.1646H16.4248L14.1504 60.6017V63.1646H12.9522V55.3983H14.1504V60.0691L16.3028 57.6172H17.7673L15.3264 60.3354L17.856 63.1646Z" fill="#718EBF"/>
<path d="M15.8712 89.947C15.3386 90.6792 14.5916 91.0454 13.6301 91.0454C12.6685 91.0454 11.9178 90.6792 11.3778 89.947C10.8453 89.2147 10.579 88.2384 10.579 87.018C10.579 85.7976 10.8453 84.8213 11.3778 84.089C11.9178 83.3568 12.6685 82.9906 13.6301 82.9906C14.5916 82.9906 15.3386 83.3568 15.8712 84.089C16.4111 84.8213 16.6811 85.7976 16.6811 87.018C16.6811 88.2384 16.4111 89.2147 15.8712 89.947ZM13.6301 89.8028C14.207 89.8028 14.6471 89.5624 14.9503 89.0816C15.2536 88.6008 15.4052 87.913 15.4052 87.018C15.4052 86.123 15.2536 85.4352 14.9503 84.9544C14.6471 84.4736 14.207 84.2332 13.6301 84.2332C13.0605 84.2332 12.6204 84.4736 12.3098 84.9544C12.0065 85.4352 11.8549 86.123 11.8549 87.018C11.8549 87.913 12.0065 88.6008 12.3098 89.0816C12.6204 89.5624 13.0605 89.8028 13.6301 89.8028Z" fill="#718EBF"/>
<path d="M44.2722 107.688C43.5251 107.688 42.8891 107.517 42.3639 107.177C41.8462 106.837 41.4837 106.371 41.2766 105.779L42.375 105.136C42.6856 106.009 43.3291 106.445 44.3055 106.445C44.7862 106.445 45.145 106.353 45.3816 106.168C45.6257 105.975 45.7478 105.728 45.7478 105.424C45.7478 105.106 45.6183 104.866 45.3595 104.703C45.1006 104.533 44.642 104.348 43.9837 104.148C43.6139 104.037 43.3143 103.934 43.0851 103.838C42.8558 103.742 42.6117 103.608 42.3528 103.438C42.1013 103.261 41.9127 103.043 41.787 102.784C41.6612 102.525 41.5984 102.222 41.5984 101.874C41.5984 101.186 41.8425 100.642 42.3306 100.243C42.8188 99.8363 43.4068 99.6328 44.0947 99.6328C44.716 99.6328 45.2596 99.7845 45.7256 100.088C46.1916 100.391 46.5503 100.809 46.8018 101.341L45.7256 101.963C45.4001 101.238 44.8565 100.875 44.0947 100.875C43.7248 100.875 43.429 100.964 43.2071 101.142C42.9852 101.312 42.8743 101.545 42.8743 101.841C42.8743 102.129 42.9852 102.358 43.2071 102.529C43.4364 102.691 43.8469 102.865 44.4386 103.05C44.7345 103.146 44.949 103.22 45.0821 103.272C45.2226 103.316 45.4149 103.39 45.659 103.494C45.9105 103.597 46.0991 103.701 46.2248 103.804C46.3506 103.908 46.4837 104.037 46.6243 104.193C46.7722 104.348 46.8757 104.526 46.9349 104.725C46.9941 104.925 47.0237 105.151 47.0237 105.402C47.0237 106.105 46.7685 106.663 46.2581 107.077C45.7552 107.484 45.0932 107.688 44.2722 107.688Z" fill="#718EBF"/>
<path d="M29.5391 80.9012C29.5391 78.6034 31.4018 76.7407 33.6996 76.7407H53.1153C55.413 76.7407 57.2757 78.6034 57.2757 80.9012V93.3827H29.5391V80.9012Z" fill="#E8F2FF"/>
<path d="M80.75 99.7771V107.543H79.4741V102.007L77.111 105.912H76.9557L74.5925 101.996V107.543H73.3166V99.7771H74.6923L77.0333 103.66L79.3854 99.7771H80.75Z" fill="#718EBF"/>
<path d="M62.8231 72.5803C62.8231 70.2825 64.6858 68.4198 66.9836 68.4198H86.3992C88.697 68.4198 90.5597 70.2825 90.5597 72.5803V93.3828H62.8231V72.5803Z" fill="#E8F2FF"/>
<path d="M113.031 99.7771V100.997H110.845V107.543H109.569V100.997H107.372V99.7771H113.031Z" fill="#718EBF"/>
<path d="M96.107 39.2964C96.107 36.9986 97.9697 35.1359 100.268 35.1359H119.683C121.981 35.1359 123.844 36.9986 123.844 39.2964V93.3828H96.107V39.2964Z" fill="#E8F2FF"/>
<path d="M140.589 107.543L138.392 99.7771H139.734L141.365 105.846L143.129 99.7771H144.305L146.058 105.846L147.689 99.7771H149.032L146.835 107.543H145.359L143.717 101.874L142.064 107.543H140.589Z" fill="#718EBF"/>
<path d="M129.391 54.5515C129.391 52.2537 131.254 50.391 133.551 50.391H152.967C155.265 50.391 157.128 52.2537 157.128 54.5515V93.3828H129.391V54.5515Z" fill="#3734A9"/>
<path d="M179.599 99.7772V100.998H177.413V107.543H176.137V100.998H173.94V99.7772H179.599Z" fill="#718EBF"/>
<path d="M162.675 15.7203C162.675 13.4225 164.538 11.5598 166.836 11.5598H186.251C188.549 11.5598 190.412 13.4225 190.412 15.7203V93.3829H162.675V15.7203Z" fill="#3734A9"/>
<path d="M213.895 100.998H210.622V103.172H213.784V104.393H210.622V107.543H209.346V99.7772H213.895V100.998Z" fill="#718EBF"/>
<path d="M195.959 80.9015C195.959 78.6037 197.822 76.741 200.119 76.741H219.535C221.833 76.741 223.696 78.6037 223.696 80.9015V93.3829H195.959V80.9015Z" fill="#E8F2FF"/>
<path d="M243.976 107.688C243.229 107.688 242.593 107.517 242.068 107.177C241.55 106.837 241.188 106.371 240.98 105.779L242.079 105.136C242.389 106.009 243.033 106.445 244.009 106.445C244.49 106.445 244.849 106.353 245.085 106.168C245.33 105.975 245.452 105.728 245.452 105.424C245.452 105.106 245.322 104.866 245.063 104.703C244.804 104.533 244.346 104.348 243.688 104.148C243.318 104.037 243.018 103.934 242.789 103.838C242.56 103.742 242.315 103.608 242.057 103.438C241.805 103.261 241.617 103.043 241.491 102.784C241.365 102.525 241.302 102.222 241.302 101.874C241.302 101.186 241.546 100.642 242.034 100.243C242.523 99.8363 243.111 99.6328 243.798 99.6328C244.42 99.6328 244.963 99.7845 245.429 100.088C245.895 100.391 246.254 100.809 246.506 101.341L245.429 101.963C245.104 101.238 244.56 100.875 243.798 100.875C243.429 100.875 243.133 100.964 242.911 101.142C242.689 101.312 242.578 101.545 242.578 101.841C242.578 102.129 242.689 102.358 242.911 102.529C243.14 102.691 243.551 102.865 244.142 103.05C244.438 103.146 244.653 103.22 244.786 103.272C244.926 103.316 245.119 103.39 245.363 103.494C245.614 103.597 245.803 103.701 245.929 103.804C246.054 103.908 246.188 104.037 246.328 104.193C246.476 104.348 246.58 104.526 246.639 104.725C246.698 104.925 246.727 105.151 246.727 105.402C246.727 106.105 246.472 106.663 245.962 107.077C245.459 107.484 244.797 107.688 243.976 107.688Z" fill="#718EBF"/>
<path d="M229.243 54.5516C229.243 52.2538 231.106 50.3911 233.403 50.3911H252.819C255.117 50.3911 256.98 52.2538 256.98 54.5516V93.3829H229.243V54.5516Z" fill="#3734A9"/>
<path d="M278.647 107.688C277.899 107.688 277.263 107.517 276.738 107.177C276.22 106.837 275.858 106.371 275.651 105.779L276.749 105.136C277.06 106.009 277.703 106.445 278.68 106.445C279.161 106.445 279.519 106.353 279.756 106.168C280 105.975 280.122 105.728 280.122 105.424C280.122 105.106 279.993 104.866 279.734 104.703C279.475 104.533 279.016 104.348 278.358 104.148C277.988 104.037 277.689 103.934 277.459 103.838C277.23 103.742 276.986 103.608 276.727 103.438C276.476 103.261 276.287 103.043 276.161 102.784C276.036 102.525 275.973 102.222 275.973 101.874C275.973 101.186 276.217 100.642 276.705 100.243C277.193 99.8363 277.781 99.6328 278.469 99.6328C279.09 99.6328 279.634 99.7845 280.1 100.088C280.566 100.391 280.925 100.809 281.176 101.341L280.1 101.963C279.774 101.238 279.231 100.875 278.469 100.875C278.099 100.875 277.803 100.964 277.581 101.142C277.36 101.312 277.249 101.545 277.249 101.841C277.249 102.129 277.36 102.358 277.581 102.529C277.811 102.691 278.221 102.865 278.813 103.05C279.109 103.146 279.323 103.22 279.456 103.272C279.597 103.316 279.789 103.39 280.033 103.494C280.285 103.597 280.473 103.701 280.599 103.804C280.725 103.908 280.858 104.037 280.999 104.193C281.147 104.348 281.25 104.526 281.309 104.725C281.368 104.925 281.398 105.151 281.398 105.402C281.398 106.105 281.143 106.663 280.632 107.077C280.13 107.484 279.468 107.688 278.647 107.688Z" fill="#718EBF"/>
<path d="M262.527 33.7491C262.527 31.4513 264.389 29.5886 266.687 29.5886H286.103C288.401 29.5886 290.263 31.4513 290.263 33.7491V93.3829H262.527V33.7491Z" fill="#3734A9"/>
</svg>
